<svg width="111" height="93" viewBox="0 0 111 93" fill="none" xmlns="http://www.w3.org/2000/svg">
<path d="M56.17 92.6302C41.95 92.6302 27.74 92.6502 13.52 92.6302C7.58996 92.6302 5.61995 90.6502 5.60995 84.7402C5.58995 74.6802 5.65996 64.6301 5.56996 54.5701C5.53996 51.7701 5.93995 50.2602 9.17995 51.7602C11.1899 52.6902 13.4399 52.6901 15.6499 52.6901C24.5499 52.6701 33.45 52.7102 42.35 52.6702C44.72 52.6602 46.87 52.6701 46.74 55.9501C46.68 57.4401 47.8099 57.5002 48.8999 57.5002C53.5199 57.5002 58.15 57.4902 62.77 57.5002C64.2 57.5002 65.35 57.1602 65.38 55.4702C65.43 52.8202 67.18 52.6702 69.19 52.6802C77.05 52.7102 84.91 52.6601 92.77 52.7001C96.71 52.7201 100.64 52.8102 104.32 51.0502C105.98 50.2502 106.67 50.8602 106.67 52.6202C106.65 63.9502 106.76 75.2802 106.57 86.6002C106.51 90.5702 103.76 92.6102 99.16 92.6202C84.83 92.6602 70.5 92.6402 56.16 92.6402L56.17 92.6302Z" fill="black"/>
<path d="M82.67 48.03C78.16 48.03 73.65 47.95 69.14 48.06C66.54 48.12 65.15 47.2399 65.42 44.4699C65.7 41.6199 64.38 40.51 61.56 40.61C57.87 40.74 54.16 40.75 50.46 40.61C47.85 40.5 46.47 41.33 46.73 44.12C47.02 47.17 45.52 48.1199 42.6 48.0799C33.7 47.9599 24.8 48.13 15.89 48.01C6.91999 47.89 1.2 42.1899 0.909996 33.2299C0.799996 29.8799 0.799985 26.52 0.929985 23.17C1.12998 18.01 3.35999 15.8799 8.53999 15.8399C15.48 15.7899 22.41 15.74 29.35 15.86C31.87 15.9 32.72 15.05 32.87 12.5C33.31 5.30996 37.71 1.00001 44.93 0.800013C52.32 0.590013 59.73 0.600013 67.12 0.800013C74.12 0.990013 78.22 4.79994 79.01 11.8499C79.35 14.8799 80.36 16.01 83.52 15.89C89.99 15.65 96.47 15.7799 102.94 15.8299C108.32 15.8699 110.57 18.08 110.68 23.38C110.75 26.62 110.76 29.8599 110.68 33.0899C110.46 42.0499 104.76 47.78 95.82 48C91.43 48.1 87.03 48.02 82.64 48.02L82.67 48.03ZM56.02 15.8199C59.71 15.8199 63.4 15.7899 67.08 15.8299C68.88 15.8499 70.31 15.65 70.23 13.29C70.16 11.25 69.43 9.92 67.22 9.91C59.73 9.89 52.24 9.86001 44.75 9.92001C42.51 9.94001 41.91 11.4799 41.93 13.4599C41.95 15.5599 43.28 15.8299 44.95 15.8199C48.64 15.7899 52.33 15.8199 56.01 15.8199H56.02Z" fill="black"/>
</svg>
